<svg width="1808" height="779" viewBox="0 0 1808 779" fill="none" xmlns="http://www.w3.org/2000/svg">
<path d="M466.377 124.3L476.774 127.266L486.871 130.147L489.044 122.53C489.196 121.999 488.888 121.446 488.357 121.294L469.786 115.996C469.255 115.844 468.701 116.152 468.55 116.683L466.377 124.3Z" fill="#62BD53"/>
<path d="M507.005 135.892L517.282 138.825L522.421 140.291L527.56 141.757L529.733 134.14C529.885 133.609 529.577 133.056 529.046 132.904L519.73 130.246L510.414 127.588C509.883 127.437 509.33 127.744 509.178 128.275L507.005 135.892Z" fill="#62BD53"/>
<path d="M525.743 187.077L537.837 144.689L527.56 141.757L522.421 140.291L517.282 138.825L507.005 135.892L496.728 132.96L496.968 133.028L497.208 133.097L486.871 130.147L476.774 127.266L466.377 124.3L456.099 121.367L444.005 163.755L525.743 187.077Z" fill="#62BD53"/>
<path d="M476.774 127.266C472.714 126.108 466.377 124.3 466.377 124.3M476.774 127.266C480.717 128.391 486.871 130.147 486.871 130.147M476.774 127.266L466.377 124.3M476.774 127.266L486.871 130.147M466.377 124.3L456.099 121.367L444.005 163.755L525.743 187.077L537.837 144.689L527.56 141.757M466.377 124.3L468.55 116.683C468.701 116.152 469.255 115.844 469.786 115.996L488.357 121.294C488.888 121.446 489.196 121.999 489.044 122.53L486.871 130.147M486.871 130.147L497.208 133.097L496.968 133.028L496.728 132.96L507.005 135.892M527.56 141.757L529.733 134.14C529.885 133.609 529.577 133.056 529.046 132.904L519.73 130.246L510.414 127.588C509.883 127.437 509.33 127.744 509.178 128.275L507.005 135.892M527.56 141.757L522.421 140.291L517.282 138.825L507.005 135.892" stroke="white" stroke-width="0.5"/>
<path d="M1344.06 471.205L1333.69 468.139L1323.62 465.162L1321.38 472.758C1321.22 473.288 1321.52 473.844 1322.05 474L1340.57 479.476C1341.1 479.633 1341.66 479.331 1341.81 478.801L1344.06 471.205Z" fill="#BD5353"/>
<path d="M1303.54 459.226L1293.29 456.195L1288.17 454.68L1283.05 453.165L1280.8 460.761C1280.64 461.29 1280.95 461.846 1281.47 462.003L1290.76 464.75L1300.05 467.497C1300.58 467.653 1301.14 467.351 1301.3 466.821L1303.54 459.226Z" fill="#BD5353"/>
<path d="M1285.29 407.864L1272.8 450.134L1283.05 453.165L1288.17 454.68L1293.29 456.195L1303.54 459.226L1313.79 462.256L1313.55 462.185L1313.31 462.114L1323.62 465.162L1333.69 468.139L1344.06 471.205L1354.31 474.236L1366.81 431.966L1285.29 407.864Z" fill="#BD5353"/>
<path d="M1333.69 468.139C1337.74 469.337 1344.06 471.205 1344.06 471.205M1333.69 468.139C1329.76 466.977 1323.62 465.162 1323.62 465.162M1333.69 468.139L1344.06 471.205M1333.69 468.139L1323.62 465.162M1344.06 471.205L1354.31 474.236L1366.81 431.966L1285.29 407.864L1272.8 450.134L1283.05 453.165M1344.06 471.205L1341.81 478.801C1341.66 479.331 1341.1 479.633 1340.57 479.476L1322.05 474C1321.52 473.844 1321.22 473.288 1321.38 472.758L1323.62 465.162M1323.62 465.162L1313.31 462.114L1313.55 462.185L1313.79 462.256L1303.54 459.226M1283.05 453.165L1280.8 460.761C1280.64 461.29 1280.95 461.846 1281.47 462.003L1290.76 464.75L1300.05 467.497C1300.58 467.653 1301.14 467.351 1301.3 466.821L1303.54 459.226M1283.05 453.165L1288.17 454.68L1293.29 456.195L1303.54 459.226" stroke="white" stroke-width="0.5"/>
<path d="M710.606 190.835L700.534 194.766L690.752 198.584L693.632 205.963C693.833 206.477 694.413 206.731 694.927 206.531L712.918 199.509C713.433 199.308 713.687 198.728 713.486 198.213L710.606 190.835Z" fill="#D8D23E"/>
<path d="M671.248 206.197L661.292 210.082L656.314 212.025L651.336 213.968L654.216 221.347C654.416 221.862 654.996 222.116 655.511 221.915L664.535 218.393L673.56 214.87C674.074 214.67 674.329 214.09 674.128 213.575L671.248 206.197Z" fill="#D8D23E"/>
<path d="M625.353 176.792L641.38 217.854L651.336 213.968L656.314 212.025L661.292 210.082L671.248 206.197L681.204 202.311L680.971 202.402L680.738 202.492L690.752 198.584L700.534 194.766L710.606 190.835L720.562 186.949L704.535 145.887L625.353 176.792Z" fill="#D8D23E"/>
<path d="M700.534 194.766C704.467 193.231 710.606 190.835 710.606 190.835M700.534 194.766C696.714 196.257 690.752 198.584 690.752 198.584M700.534 194.766L710.606 190.835M700.534 194.766L690.752 198.584M710.606 190.835L720.562 186.949L704.535 145.887L625.353 176.792L641.38 217.854L651.336 213.968M710.606 190.835L713.486 198.213C713.687 198.728 713.433 199.308 712.918 199.509L694.927 206.531C694.413 206.731 693.833 206.477 693.632 205.963L690.752 198.584M690.752 198.584L680.738 202.492L680.971 202.402L681.204 202.311L671.248 206.197M651.336 213.968L654.216 221.347C654.416 221.862 654.996 222.116 655.511 221.915L664.535 218.393L673.56 214.87C674.074 214.67 674.329 214.09 674.128 213.575L671.248 206.197M651.336 213.968L656.314 212.025L661.292 210.082L671.248 206.197" stroke="white" stroke-width="0.5"/>
<path d="M1100.48 402.343L1110.59 398.508L1120.4 394.783L1117.59 387.378C1117.4 386.861 1116.82 386.601 1116.3 386.797L1098.25 393.647C1097.73 393.843 1097.47 394.42 1097.67 394.937L1100.48 402.343Z" fill="#D7C7C7"/>
<path d="M1139.98 387.357L1149.97 383.566L1154.97 381.671L1159.96 379.776L1157.15 372.37C1156.96 371.853 1156.38 371.594 1155.86 371.79L1146.81 375.226L1137.75 378.662C1137.23 378.857 1136.97 379.435 1137.17 379.951L1139.98 387.357Z" fill="#D7C7C7"/>
<path d="M1185.59 417.198L1169.96 375.985L1159.96 379.776L1154.97 381.671L1149.97 383.566L1139.98 387.357L1129.99 391.148L1130.22 391.059L1130.45 390.97L1120.4 394.783L1110.59 398.508L1100.48 402.343L1090.48 406.133L1106.12 447.347L1185.59 417.198Z" fill="#D7C7C7"/>
<path d="M1110.59 398.508C1106.64 400.005 1100.48 402.343 1100.48 402.343M1110.59 398.508C1114.42 397.053 1120.4 394.783 1120.4 394.783M1110.59 398.508L1100.48 402.343M1110.59 398.508L1120.4 394.783M1100.48 402.343L1090.48 406.133L1106.12 447.347L1185.59 417.198L1169.96 375.985L1159.96 379.776M1100.48 402.343L1097.67 394.937C1097.47 394.42 1097.73 393.843 1098.25 393.647L1116.3 386.797C1116.82 386.601 1117.4 386.861 1117.59 387.378L1120.4 394.783M1120.4 394.783L1130.45 390.97L1130.22 391.059L1129.99 391.148L1139.98 387.357M1159.96 379.776L1157.15 372.37C1156.96 371.853 1156.38 371.594 1155.86 371.79L1146.81 375.226L1137.75 378.662C1137.23 378.857 1136.97 379.435 1137.17 379.951L1139.98 387.357M1159.96 379.776L1154.97 381.671L1149.97 383.566L1139.98 387.357" stroke="white" stroke-width="0.5"/>
<path d="M769.24 174L763.973 164.557L758.858 155.387L751.94 159.246C751.458 159.515 751.285 160.124 751.554 160.606L760.962 177.472C761.231 177.955 761.84 178.127 762.323 177.858L769.24 174Z" fill="#BD5353"/>
<path d="M748.658 137.102L743.452 127.768L740.849 123.102L738.245 118.435L731.328 122.293C730.846 122.562 730.673 123.172 730.942 123.654L735.661 132.114L740.38 140.574C740.649 141.057 741.258 141.23 741.741 140.961L748.658 137.102Z" fill="#BD5353"/>
<path d="M771.534 87.6282L733.039 109.101L738.245 118.435L740.849 123.102L743.452 127.768L748.658 137.102L753.865 146.436L753.743 146.217L753.621 145.999L758.858 155.387L763.973 164.557L769.24 174L774.446 183.333L812.942 161.86L771.534 87.6282Z" fill="#BD5353"/>
<path d="M763.973 164.557C766.03 168.245 769.24 174 769.24 174M763.973 164.557C761.975 160.976 758.858 155.387 758.858 155.387M763.973 164.557L769.24 174M763.973 164.557L758.858 155.387M769.24 174L774.446 183.333L812.942 161.86L771.534 87.6282L733.039 109.101L738.245 118.435M769.24 174L762.323 177.858C761.84 178.127 761.231 177.955 760.962 177.472L751.554 160.606C751.285 160.124 751.458 159.515 751.94 159.246L758.858 155.387M758.858 155.387L753.621 145.999L753.743 146.217L753.865 146.436L748.658 137.102M738.245 118.435L731.328 122.293C730.846 122.562 730.673 123.172 730.942 123.654L735.661 132.114L740.38 140.574C740.649 141.057 741.258 141.23 741.741 140.961L748.658 137.102M738.245 118.435L740.849 123.102L743.452 127.768L748.658 137.102" stroke="white" stroke-width="0.5"/>
<path d="M1035.63 412.596L1041.22 421.851L1046.65 430.839L1053.43 426.744C1053.91 426.458 1054.06 425.843 1053.77 425.371L1043.79 408.839C1043.5 408.367 1042.89 408.215 1042.41 408.5L1035.63 412.596Z" fill="#D8D23E"/>
<path d="M1057.48 448.761L1063 457.909L1065.77 462.483L1068.53 467.058L1075.31 462.963C1075.78 462.677 1075.93 462.062 1075.65 461.59L1070.64 453.297L1065.63 445.005C1065.34 444.532 1064.73 444.38 1064.26 444.666L1057.48 448.761Z" fill="#D8D23E"/>
<path d="M1036.32 498.995L1074.05 476.206L1068.53 467.058L1065.77 462.483L1063 457.909L1057.48 448.761L1051.95 439.613L1052.08 439.827L1052.21 440.041L1046.65 430.839L1041.22 421.851L1035.63 412.596L1030.11 403.447L992.377 426.236L1036.32 498.995Z" fill="#D8D23E"/>
<path d="M1041.22 421.851C1039.04 418.236 1035.63 412.596 1035.63 412.596M1041.22 421.851C1043.34 425.361 1046.65 430.839 1046.65 430.839M1041.22 421.851L1035.63 412.596M1041.22 421.851L1046.65 430.839M1035.63 412.596L1030.11 403.447L992.377 426.236L1036.32 498.995L1074.05 476.206L1068.53 467.058M1035.63 412.596L1042.41 408.5C1042.89 408.215 1043.5 408.367 1043.79 408.839L1053.77 425.371C1054.06 425.843 1053.91 426.458 1053.43 426.744L1046.65 430.839M1046.65 430.839L1052.21 440.041L1052.08 439.827L1051.95 439.613L1057.48 448.761M1068.53 467.058L1075.31 462.963C1075.78 462.677 1075.93 462.062 1075.65 461.59L1070.64 453.297L1065.63 445.005C1065.34 444.532 1064.73 444.38 1064.26 444.666L1057.48 448.761M1068.53 467.058L1065.77 462.483L1063 457.909L1057.48 448.761" stroke="white" stroke-width="0.5"/>
<path d="M841.206 189.389L850.031 195.637L858.601 201.704L863.177 195.239C863.496 194.788 863.39 194.164 862.939 193.845L847.176 182.686C846.726 182.367 846.102 182.474 845.782 182.925L841.206 189.389Z" fill="#537DBD"/>
<path d="M875.69 213.801L884.413 219.976L888.774 223.064L893.136 226.151L897.712 219.686C898.031 219.236 897.925 218.611 897.474 218.292L889.567 212.695L881.66 207.098C881.209 206.779 880.585 206.885 880.266 207.336L875.69 213.801Z" fill="#537DBD"/>
<path d="M876.39 268.303L901.859 232.326L893.136 226.151L888.774 223.064L884.413 219.976L875.69 213.801L866.967 207.626L867.171 207.77L867.375 207.915L858.601 201.704L850.031 195.637L841.206 189.389L832.483 183.214L807.014 219.191L876.39 268.303Z" fill="#537DBD"/>
<path d="M850.031 195.637C846.584 193.197 841.206 189.389 841.206 189.389M850.031 195.637C853.378 198.006 858.601 201.704 858.601 201.704M850.031 195.637L841.206 189.389M850.031 195.637L858.601 201.704M841.206 189.389L832.483 183.214L807.014 219.191L876.39 268.303L901.859 232.326L893.136 226.151M841.206 189.389L845.782 182.925C846.102 182.474 846.726 182.367 847.176 182.686L862.939 193.845C863.39 194.164 863.496 194.788 863.177 195.239L858.601 201.704M858.601 201.704L867.375 207.915L867.171 207.77L866.967 207.626L875.69 213.801M893.136 226.151L897.712 219.686C898.031 219.236 897.925 218.611 897.474 218.292L889.567 212.695L881.66 207.098C881.209 206.779 880.585 206.885 880.266 207.336L875.69 213.801M893.136 226.151L888.774 223.064L884.413 219.976L875.69 213.801" stroke="white" stroke-width="0.5"/>
<path d="M969.868 402.542L961.103 396.21L952.591 390.062L947.953 396.483C947.63 396.931 947.731 397.556 948.178 397.879L963.834 409.188C964.282 409.511 964.907 409.41 965.23 408.963L969.868 402.542Z" fill="#D8D23E"/>
<path d="M935.619 377.802L926.955 371.544L922.623 368.415L918.291 365.286L913.653 371.707C913.33 372.155 913.431 372.78 913.878 373.103L921.731 378.776L929.584 384.448C930.032 384.772 930.657 384.671 930.981 384.223L935.619 377.802Z" fill="#D8D23E"/>
<path d="M935.438 323.296L909.628 359.028L918.291 365.286L922.623 368.415L926.955 371.544L935.619 377.802L944.282 384.06L944.08 383.914L943.877 383.767L952.591 390.062L961.103 396.21L969.868 402.542L978.532 408.8L1004.34 373.068L935.438 323.296Z" fill="#D8D23E"/>
<path d="M961.103 396.21C964.526 398.683 969.868 402.542 969.868 402.542M961.103 396.21C957.779 393.809 952.591 390.062 952.591 390.062M961.103 396.21L969.868 402.542M961.103 396.21L952.591 390.062M969.868 402.542L978.532 408.8L1004.34 373.068L935.438 323.296L909.628 359.028L918.291 365.286M969.868 402.542L965.23 408.963C964.907 409.41 964.282 409.511 963.834 409.188L948.178 397.879C947.731 397.556 947.63 396.931 947.953 396.483L952.591 390.062M952.591 390.062L943.877 383.767L944.08 383.914L944.282 384.06L935.619 377.802M918.291 365.286L913.653 371.707C913.33 372.155 913.431 372.78 913.878 373.103L921.731 378.776L929.584 384.448C930.032 384.772 930.657 384.671 930.981 384.223L935.619 377.802M918.291 365.286L922.623 368.415L926.955 371.544L935.619 377.802" stroke="white" stroke-width="0.5"/>
<path d="M971.576 203.099L962.002 198.073L952.705 193.193L949.024 200.206C948.767 200.695 948.955 201.3 949.444 201.556L966.544 210.533C967.033 210.79 967.637 210.601 967.894 210.112L971.576 203.099Z" fill="#BD5353"/>
<path d="M934.167 183.461L924.704 178.494L919.972 176.01L915.241 173.526L911.559 180.539C911.303 181.028 911.491 181.633 911.98 181.89L920.558 186.392L929.135 190.895C929.624 191.152 930.229 190.963 930.485 190.474L934.167 183.461Z" fill="#BD5353"/>
<path d="M926.266 129.53L905.778 168.559L915.241 173.526L919.972 176.01L924.704 178.494L934.167 183.461L943.63 188.429L943.408 188.313L943.187 188.196L952.705 193.193L962.002 198.073L971.576 203.099L981.038 208.067L1001.53 169.038L926.266 129.53Z" fill="#BD5353"/>
<path d="M962.002 198.073C965.741 200.036 971.576 203.099 971.576 203.099M962.002 198.073C958.371 196.167 952.705 193.193 952.705 193.193M962.002 198.073L971.576 203.099M962.002 198.073L952.705 193.193M971.576 203.099L981.038 208.067L1001.53 169.038L926.266 129.53L905.778 168.559L915.241 173.526M971.576 203.099L967.894 210.112C967.637 210.601 967.033 210.79 966.544 210.533L949.444 201.556C948.955 201.3 948.767 200.695 949.024 200.206L952.705 193.193M952.705 193.193L943.187 188.196L943.408 188.313L943.63 188.429L934.167 183.461M915.241 173.526L911.559 180.539C911.303 181.028 911.491 181.633 911.98 181.89L920.558 186.392L929.135 190.895C929.624 191.152 930.229 190.963 930.485 190.474L934.167 183.461M915.241 173.526L919.972 176.01L924.704 178.494L934.167 183.461" stroke="white" stroke-width="0.5"/>
<path d="M839.635 387.589L849.161 392.705L858.41 397.674L862.159 390.697C862.42 390.21 862.238 389.604 861.751 389.342L844.738 380.203C844.251 379.942 843.645 380.124 843.384 380.611L839.635 387.589Z" fill="#D7C7C7"/>
<path d="M876.855 407.583L886.27 412.64L890.978 415.169L895.685 417.698L899.433 410.72C899.695 410.234 899.512 409.627 899.026 409.366L890.492 404.781L881.958 400.197C881.471 399.936 880.865 400.118 880.603 400.605L876.855 407.583Z" fill="#D7C7C7"/>
<path d="M884.241 461.587L905.1 422.755L895.685 417.698L890.978 415.169L886.27 412.64L876.855 407.583L867.44 402.525L867.66 402.643L867.88 402.762L858.41 397.674L849.161 392.705L839.635 387.589L830.22 382.531L809.361 421.362L884.241 461.587Z" fill="#D7C7C7"/>
<path d="M849.161 392.705C845.441 390.707 839.635 387.589 839.635 387.589M849.161 392.705C852.773 394.646 858.41 397.674 858.41 397.674M849.161 392.705L839.635 387.589M849.161 392.705L858.41 397.674M839.635 387.589L830.22 382.531L809.361 421.362L884.241 461.587L905.1 422.755L895.685 417.698M839.635 387.589L843.384 380.611C843.645 380.124 844.251 379.942 844.738 380.203L861.751 389.342C862.238 389.604 862.42 390.21 862.159 390.697L858.41 397.674M858.41 397.674L867.88 402.762L867.66 402.643L867.44 402.525L876.855 407.583M895.685 417.698L899.433 410.72C899.695 410.234 899.512 409.627 899.026 409.366L890.492 404.781L881.958 400.197C881.471 399.936 880.865 400.118 880.603 400.605L876.855 407.583M895.685 417.698L890.978 415.169L886.27 412.64L876.855 407.583" stroke="white" stroke-width="0.5"/>
<path d="M1014.83 230.52L1025.09 233.92L1035.06 237.223L1037.55 229.704C1037.72 229.18 1037.44 228.614 1036.92 228.44L1018.58 222.366C1018.06 222.193 1017.49 222.477 1017.32 223.001L1014.83 230.52Z" fill="#62BD53"/>
<path d="M1054.93 243.808L1065.08 247.169L1070.15 248.849L1075.22 250.53L1077.72 243.011C1077.89 242.487 1077.61 241.921 1077.08 241.747L1067.89 238.701L1058.69 235.654C1058.17 235.48 1057.6 235.764 1057.43 236.289L1054.93 243.808Z" fill="#62BD53"/>
<path d="M1071.51 295.734L1085.37 253.891L1075.22 250.53L1070.15 248.849L1065.08 247.169L1054.93 243.808L1044.79 240.446L1045.03 240.525L1045.26 240.604L1035.06 237.223L1025.09 233.92L1014.83 230.52L1004.68 227.159L990.82 269.001L1071.51 295.734Z" fill="#62BD53"/>
<path d="M1025.09 233.92C1021.08 232.592 1014.83 230.52 1014.83 230.52M1025.09 233.92C1028.98 235.21 1035.06 237.223 1035.06 237.223M1025.09 233.92L1014.83 230.52M1025.09 233.92L1035.06 237.223M1014.83 230.52L1004.68 227.159L990.82 269.001L1071.51 295.734L1085.37 253.891L1075.22 250.53M1014.83 230.52L1017.32 223.001C1017.49 222.477 1018.06 222.193 1018.58 222.366L1036.92 228.44C1037.44 228.614 1037.72 229.18 1037.55 229.704L1035.06 237.223M1035.06 237.223L1045.26 240.604L1045.03 240.525L1044.79 240.446L1054.93 243.808M1075.22 250.53L1077.72 243.011C1077.89 242.487 1077.61 241.921 1077.08 241.747L1067.89 238.701L1058.69 235.654C1058.17 235.48 1057.6 235.764 1057.43 236.289L1054.93 243.808M1075.22 250.53L1070.15 248.849L1065.08 247.169L1054.93 243.808" stroke="white" stroke-width="0.5"/>
<path d="M796.646 359.756L786.415 356.258L776.48 352.861L773.917 360.356C773.738 360.878 774.017 361.447 774.539 361.625L792.813 367.874C793.336 368.052 793.904 367.774 794.083 367.251L796.646 359.756Z" fill="#537DBD"/>
<path d="M756.668 346.087L746.556 342.629L741.499 340.9L736.443 339.171L733.88 346.666C733.701 347.188 733.98 347.757 734.503 347.935L743.669 351.07L752.836 354.204C753.358 354.383 753.927 354.104 754.105 353.581L756.668 346.087Z" fill="#537DBD"/>
<path d="M740.592 294.005L726.33 335.713L736.443 339.171L741.499 340.9L746.556 342.629L756.668 346.087L766.781 349.544L766.544 349.464L766.308 349.383L776.48 352.861L786.415 356.258L796.646 359.756L806.758 363.214L821.02 321.506L740.592 294.005Z" fill="#537DBD"/>
<path d="M786.415 356.258C790.41 357.624 796.646 359.756 796.646 359.756M786.415 356.258C782.535 354.931 776.48 352.861 776.48 352.861M786.415 356.258L796.646 359.756M786.415 356.258L776.48 352.861M796.646 359.756L806.758 363.214L821.02 321.506L740.592 294.005L726.33 335.713L736.443 339.171M796.646 359.756L794.083 367.251C793.904 367.774 793.336 368.052 792.813 367.874L774.539 361.625C774.017 361.447 773.738 360.878 773.917 360.356L776.48 352.861M776.48 352.861L766.308 349.383L766.544 349.464L766.781 349.544L756.668 346.087M736.443 339.171L733.88 346.666C733.701 347.188 733.98 347.757 734.503 347.935L743.669 351.07L752.836 354.204C753.358 354.383 753.927 354.104 754.105 353.581L756.668 346.087M736.443 339.171L741.499 340.9L746.556 342.629L756.668 346.087" stroke="white" stroke-width="0.5"/>
<path d="M1126.98 173.182L1133.94 181.454L1140.7 189.487L1146.76 184.386C1147.18 184.03 1147.24 183.399 1146.88 182.977L1134.44 168.202C1134.09 167.779 1133.46 167.725 1133.04 168.081L1126.98 173.182Z" fill="#BD5353"/>
<path d="M1154.18 205.504L1161.07 213.681L1164.51 217.769L1167.95 221.857L1174.01 216.756C1174.43 216.4 1174.49 215.77 1174.13 215.347L1167.89 207.936L1161.65 200.525C1161.3 200.102 1160.67 200.048 1160.24 200.404L1154.18 205.504Z" fill="#BD5353"/>
<path d="M1141.11 258.42L1174.83 230.033L1167.95 221.857L1164.51 217.769L1161.07 213.681L1154.18 205.504L1147.3 197.328L1147.46 197.519L1147.62 197.711L1140.7 189.487L1133.94 181.454L1126.98 173.182L1120.09 165.005L1086.37 193.392L1141.11 258.42Z" fill="#BD5353"/>
<path d="M1133.94 181.454C1131.22 178.223 1126.98 173.182 1126.98 173.182M1133.94 181.454C1136.58 184.591 1140.7 189.487 1140.7 189.487M1133.94 181.454L1126.98 173.182M1133.94 181.454L1140.7 189.487M1126.98 173.182L1120.09 165.005L1086.37 193.392L1141.11 258.42L1174.83 230.033L1167.95 221.857M1126.98 173.182L1133.04 168.081C1133.46 167.725 1134.09 167.779 1134.44 168.202L1146.88 182.977C1147.24 183.399 1147.18 184.03 1146.76 184.386L1140.7 189.487M1140.7 189.487L1147.62 197.711L1147.46 197.519L1147.3 197.328L1154.18 205.504M1167.95 221.857L1174.01 216.756C1174.43 216.4 1174.49 215.77 1174.13 215.347L1167.89 207.936L1161.65 200.525C1161.3 200.102 1160.67 200.048 1160.24 200.404L1154.18 205.504M1167.95 221.857L1164.51 217.769L1161.07 213.681L1154.18 205.504" stroke="white" stroke-width="0.5"/>
<path d="M683.957 416.022L677.073 407.684L670.388 399.587L664.28 404.629C663.854 404.981 663.794 405.611 664.145 406.037L676.441 420.93C676.792 421.356 677.423 421.416 677.849 421.064L683.957 416.022Z" fill="#62BD53"/>
<path d="M657.058 383.441L650.254 375.199L646.851 371.078L643.449 366.958L637.341 372C636.915 372.352 636.855 372.982 637.207 373.408L643.374 380.879L649.542 388.349C649.894 388.775 650.524 388.835 650.95 388.484L657.058 383.441Z" fill="#62BD53"/>
<path d="M670.637 330.652L636.645 358.716L643.449 366.958L646.851 371.078L650.254 375.199L657.058 383.441L663.862 391.682L663.703 391.49L663.544 391.297L670.388 399.587L677.073 407.684L683.957 416.022L690.761 424.263L724.753 396.2L670.637 330.652Z" fill="#62BD53"/>
<path d="M677.073 407.684C679.761 410.94 683.957 416.022 683.957 416.022M677.073 407.684C674.462 404.522 670.388 399.587 670.388 399.587M677.073 407.684L683.957 416.022M677.073 407.684L670.388 399.587M683.957 416.022L690.761 424.263L724.753 396.2L670.637 330.652L636.645 358.716L643.449 366.958M683.957 416.022L677.849 421.064C677.423 421.416 676.792 421.356 676.441 420.93L664.145 406.037C663.794 405.611 663.854 404.981 664.28 404.629L670.388 399.587M670.388 399.587L663.544 391.297L663.703 391.49L663.862 391.682L657.058 383.441M643.449 366.958L637.341 372C636.915 372.352 636.855 372.982 637.207 373.408L643.374 380.879L649.542 388.349C649.894 388.775 650.524 388.835 650.95 388.484L657.058 383.441M643.449 366.958L646.851 371.078L650.254 375.199L657.058 383.441" stroke="white" stroke-width="0.5"/>
<path d="M1189.11 248.397L1197.19 241.207L1205.03 234.224L1199.76 228.309C1199.39 227.896 1198.76 227.86 1198.35 228.227L1183.93 241.07C1183.51 241.437 1183.48 242.069 1183.84 242.482L1189.11 248.397Z" fill="#62BD53"/>
<path d="M1220.67 220.3L1228.65 213.193L1232.64 209.639L1236.63 206.085L1231.36 200.17C1230.99 199.758 1230.36 199.721 1229.95 200.088L1222.71 206.531L1215.48 212.973C1215.07 213.34 1215.03 213.972 1215.4 214.385L1220.67 220.3Z" fill="#62BD53"/>
<path d="M1273.92 231.898L1244.61 198.978L1236.63 206.085L1232.64 209.639L1228.65 213.193L1220.67 220.3L1212.68 227.408L1212.87 227.241L1213.06 227.075L1205.03 234.224L1197.19 241.207L1189.11 248.397L1181.13 255.505L1210.44 288.424L1273.92 231.898Z" fill="#62BD53"/>
<path d="M1197.19 241.207C1194.03 244.015 1189.11 248.397 1189.11 248.397M1197.19 241.207C1200.25 238.48 1205.03 234.224 1205.03 234.224M1197.19 241.207L1189.11 248.397M1197.19 241.207L1205.03 234.224M1189.11 248.397L1181.13 255.505L1210.44 288.424L1273.92 231.898L1244.61 198.978L1236.63 206.085M1189.11 248.397L1183.84 242.482C1183.48 242.069 1183.51 241.437 1183.93 241.07L1198.35 228.227C1198.76 227.86 1199.39 227.896 1199.76 228.309L1205.03 234.224M1205.03 234.224L1213.06 227.075L1212.87 227.241L1212.68 227.408L1220.67 220.3M1236.63 206.085L1231.36 200.17C1230.99 199.758 1230.36 199.721 1229.95 200.088L1222.71 206.531L1215.48 212.973C1215.07 213.34 1215.03 213.972 1215.4 214.385L1220.67 220.3M1236.63 206.085L1232.64 209.639L1228.65 213.193L1220.67 220.3" stroke="white" stroke-width="0.5"/>
<path d="M622.541 340.217L614.397 347.33L606.489 354.237L611.7 360.203C612.064 360.619 612.695 360.661 613.111 360.298L627.656 347.593C628.072 347.23 628.115 346.598 627.751 346.182L622.541 340.217Z" fill="#D7C7C7"/>
<path d="M590.721 368.011L582.671 375.042L578.647 378.558L574.622 382.073L579.833 388.039C580.196 388.454 580.828 388.497 581.244 388.134L588.54 381.761L595.836 375.388C596.252 375.024 596.295 374.393 595.931 373.977L590.721 368.011Z" fill="#D7C7C7"/>
<path d="M537.575 355.906L566.573 389.104L574.622 382.073L578.647 378.558L582.671 375.042L590.721 368.011L598.77 360.98L598.581 361.145L598.393 361.309L606.489 354.237L614.397 347.33L622.541 340.217L630.59 333.186L601.592 299.988L537.575 355.906Z" fill="#D7C7C7"/>
<path d="M614.397 347.33C617.578 344.552 622.541 340.217 622.541 340.217M614.397 347.33C611.309 350.027 606.489 354.237 606.489 354.237M614.397 347.33L622.541 340.217M614.397 347.33L606.489 354.237M622.541 340.217L630.59 333.186L601.592 299.988L537.575 355.906L566.573 389.104L574.622 382.073M622.541 340.217L627.751 346.182C628.115 346.598 628.072 347.23 627.656 347.593L613.111 360.298C612.695 360.661 612.064 360.619 611.7 360.203L606.489 354.237M606.489 354.237L598.393 361.309L598.581 361.145L598.77 360.98L590.721 368.011M574.622 382.073L579.833 388.039C580.196 388.454 580.828 388.497 581.244 388.134L588.54 381.761L595.836 375.388C596.252 375.024 596.295 374.393 595.931 373.977L590.721 368.011M574.622 382.073L578.647 378.558L582.671 375.042L590.721 368.011" stroke="white" stroke-width="0.5"/>
<path d="M1335.26 301.184L1325.67 296.191L1316.35 291.342L1312.7 298.368C1312.44 298.858 1312.63 299.462 1313.12 299.717L1330.25 308.635C1330.74 308.89 1331.35 308.7 1331.6 308.21L1335.26 301.184Z" fill="#D7C7C7"/>
<path d="M1297.78 281.674L1288.3 276.738L1283.56 274.271L1278.82 271.803L1275.17 278.829C1274.91 279.319 1275.1 279.923 1275.59 280.178L1284.18 284.651L1292.78 289.125C1293.27 289.38 1293.87 289.189 1294.12 288.699L1297.78 281.674Z" fill="#D7C7C7"/>
<path d="M1289.7 227.77L1269.34 266.868L1278.82 271.803L1283.56 274.271L1288.3 276.738L1297.78 281.674L1307.26 286.609L1307.04 286.494L1306.82 286.378L1316.35 291.342L1325.67 296.191L1335.26 301.184L1344.74 306.119L1365.09 267.021L1289.7 227.77Z" fill="#D7C7C7"/>
<path d="M1325.67 296.191C1329.41 298.141 1335.26 301.184 1335.26 301.184M1325.67 296.191C1322.03 294.297 1316.35 291.342 1316.35 291.342M1325.67 296.191L1335.26 301.184M1325.67 296.191L1316.35 291.342M1335.26 301.184L1344.74 306.119L1365.09 267.021L1289.7 227.77L1269.34 266.868L1278.82 271.803M1335.26 301.184L1331.6 308.21C1331.35 308.7 1330.74 308.89 1330.25 308.635L1313.12 299.717C1312.63 299.462 1312.44 298.858 1312.7 298.368L1316.35 291.342M1316.35 291.342L1306.82 286.378L1307.04 286.494L1307.26 286.609L1297.78 281.674M1278.82 271.803L1275.17 278.829C1274.91 279.319 1275.1 279.923 1275.59 280.178L1284.18 284.651L1292.78 289.125C1293.27 289.38 1293.87 289.189 1294.12 288.699L1297.78 281.674M1278.82 271.803L1283.56 274.271L1288.3 276.738L1297.78 281.674" stroke="white" stroke-width="0.5"/>
<path d="M476.905 286.038L486.447 291.122L495.714 296.059L499.439 289.069C499.698 288.581 499.514 287.976 499.026 287.716L481.982 278.635C481.495 278.375 480.889 278.56 480.629 279.047L476.905 286.038Z" fill="#537DBD"/>
<path d="M514.193 305.905L523.625 310.93L528.341 313.443L533.057 315.956L536.782 308.965C537.041 308.478 536.857 307.872 536.369 307.613L527.82 303.057L519.27 298.502C518.782 298.242 518.177 298.427 517.917 298.914L514.193 305.905Z" fill="#537DBD"/>
<path d="M521.762 359.883L542.489 320.981L533.057 315.956L528.341 313.443L523.625 310.93L514.193 305.905L504.76 300.879L504.981 300.997L505.202 301.114L495.714 296.059L486.447 291.122L476.905 286.038L467.473 281.012L446.746 319.914L521.762 359.883Z" fill="#537DBD"/>
<path d="M486.447 291.122C482.721 289.136 476.905 286.038 476.905 286.038M486.447 291.122C490.066 293.05 495.714 296.059 495.714 296.059M486.447 291.122L476.905 286.038M486.447 291.122L495.714 296.059M476.905 286.038L467.473 281.012L446.746 319.914L521.762 359.883L542.489 320.981L533.057 315.956M476.905 286.038L480.629 279.047C480.889 278.56 481.495 278.375 481.982 278.635L499.026 287.716C499.514 287.976 499.698 288.581 499.439 289.069L495.714 296.059M495.714 296.059L505.202 301.114L504.981 300.997L504.76 300.879L514.193 305.905M533.057 315.956L536.782 308.965C537.041 308.478 536.857 307.872 536.369 307.613L527.82 303.057L519.27 298.502C518.782 298.242 518.177 298.427 517.917 298.914L514.193 305.905M533.057 315.956L528.341 313.443L523.625 310.93L514.193 305.905" stroke="white" stroke-width="0.5"/>
<path d="M1386.21 194.769L1396.31 198.622L1406.13 202.363L1408.95 194.961C1409.14 194.445 1408.89 193.868 1408.37 193.671L1390.32 186.79C1389.81 186.593 1389.23 186.852 1389.03 187.368L1386.21 194.769Z" fill="#537DBD"/>
<path d="M1425.69 209.822L1435.68 213.63L1440.67 215.534L1445.66 217.437L1448.48 210.036C1448.68 209.52 1448.42 208.943 1447.91 208.746L1438.85 205.294L1429.8 201.843C1429.29 201.646 1428.71 201.905 1428.51 202.421L1425.69 209.822Z" fill="#537DBD"/>
<path d="M1439.94 262.432L1455.65 221.245L1445.66 217.437L1440.67 215.534L1435.68 213.63L1425.69 209.822L1415.7 206.014L1415.94 206.103L1416.17 206.192L1406.13 202.363L1396.31 198.622L1386.21 194.769L1376.23 190.962L1360.52 232.148L1439.94 262.432Z" fill="#537DBD"/>
<path d="M1396.31 198.622C1392.37 197.117 1386.21 194.769 1386.21 194.769M1396.31 198.622C1400.15 200.083 1406.13 202.363 1406.13 202.363M1396.31 198.622L1386.21 194.769M1396.31 198.622L1406.13 202.363M1386.21 194.769L1376.23 190.962L1360.52 232.148L1439.94 262.432L1455.65 221.245L1445.66 217.437M1386.21 194.769L1389.03 187.368C1389.23 186.852 1389.81 186.593 1390.32 186.79L1408.37 193.671C1408.89 193.868 1409.14 194.445 1408.95 194.961L1406.13 202.363M1406.13 202.363L1416.17 206.192L1415.94 206.103L1415.7 206.014L1425.69 209.822M1445.66 217.437L1448.48 210.036C1448.68 209.52 1448.42 208.943 1447.91 208.746L1438.85 205.294L1429.8 201.843C1429.29 201.646 1428.71 201.905 1428.51 202.421L1425.69 209.822M1445.66 217.437L1440.67 215.534L1435.68 213.63L1425.69 209.822" stroke="white" stroke-width="0.5"/>
<path d="M424.939 391.961L414.873 388.013L405.098 384.178L402.206 391.552C402.004 392.066 402.257 392.647 402.771 392.848L420.75 399.901C421.264 400.102 421.844 399.849 422.046 399.335L424.939 391.961Z" fill="#D8D23E"/>
<path d="M385.607 376.532L375.657 372.63L370.682 370.678L365.708 368.727L362.815 376.101C362.614 376.615 362.867 377.195 363.381 377.397L372.399 380.934L381.418 384.472C381.932 384.674 382.512 384.42 382.714 383.906L385.607 376.532Z" fill="#D8D23E"/>
<path d="M371.855 323.789L355.758 364.824L365.708 368.727L370.682 370.678L375.657 372.63L385.607 376.532L395.556 380.435L395.323 380.344L395.09 380.253L405.098 384.178L414.873 388.013L424.939 391.961L434.888 395.864L450.985 354.829L371.855 323.789Z" fill="#D8D23E"/>
<path d="M414.873 388.013C418.804 389.555 424.939 391.961 424.939 391.961M414.873 388.013C411.056 386.515 405.098 384.178 405.098 384.178M414.873 388.013L424.939 391.961M414.873 388.013L405.098 384.178M424.939 391.961L434.888 395.864L450.985 354.829L371.855 323.789L355.758 364.824L365.708 368.727M424.939 391.961L422.046 399.335C421.844 399.849 421.264 400.102 420.75 399.901L402.771 392.848C402.257 392.647 402.004 392.066 402.206 391.552L405.098 384.178M405.098 384.178L395.09 380.253L395.323 380.344L395.556 380.435L385.607 376.532M365.708 368.727L362.815 376.101C362.614 376.615 362.867 377.195 363.381 377.397L372.399 380.934L381.418 384.472C381.932 384.674 382.512 384.42 382.714 383.906L385.607 376.532M365.708 368.727L370.682 370.678L375.657 372.63L385.607 376.532" stroke="white" stroke-width="0.5"/>
<path d="M546.271 221.015L556.996 219.637L567.41 218.299L566.401 210.443C566.33 209.895 565.829 209.508 565.282 209.579L546.126 212.039C545.579 212.11 545.192 212.611 545.262 213.158L546.271 221.015Z" fill="#D7C7C7"/>
<path d="M588.177 215.632L598.777 214.27L604.077 213.589L609.378 212.908L608.368 205.052C608.298 204.504 607.797 204.117 607.249 204.187L597.641 205.422L588.032 206.656C587.484 206.726 587.097 207.227 587.168 207.775L588.177 215.632Z" fill="#D7C7C7"/>
<path d="M625.594 255.266L619.978 211.546L609.378 212.908L604.077 213.589L598.777 214.27L588.177 215.632L577.576 216.993L577.824 216.961L578.072 216.93L567.41 218.299L556.996 219.637L546.271 221.015L535.671 222.376L541.287 266.096L625.594 255.266Z" fill="#D7C7C7"/>
<path d="M556.996 219.637C552.807 220.175 546.271 221.015 546.271 221.015M556.996 219.637C561.063 219.115 567.41 218.299 567.41 218.299M556.996 219.637L546.271 221.015M556.996 219.637L567.41 218.299M546.271 221.015L535.671 222.376L541.287 266.096L625.594 255.266L619.978 211.546L609.378 212.908M546.271 221.015L545.262 213.158C545.192 212.611 545.579 212.11 546.126 212.039L565.282 209.579C565.829 209.508 566.33 209.895 566.401 210.443L567.41 218.299M567.41 218.299L578.072 216.93L577.824 216.961L577.576 216.993L588.177 215.632M609.378 212.908L608.368 205.052C608.298 204.504 607.797 204.117 607.249 204.187L597.641 205.422L588.032 206.656C587.484 206.726 587.097 207.227 587.168 207.775L588.177 215.632M609.378 212.908L604.077 213.589L598.777 214.27L588.177 215.632" stroke="white" stroke-width="0.5"/>
<path d="M1265.09 373.732L1254.35 375.007L1243.93 376.246L1244.86 384.111C1244.93 384.66 1245.42 385.052 1245.97 384.986L1265.15 382.709C1265.7 382.644 1266.09 382.146 1266.03 381.598L1265.09 373.732Z" fill="#D7C7C7"/>
<path d="M1223.14 378.715L1212.52 379.976L1207.22 380.606L1201.91 381.236L1202.84 389.102C1202.91 389.65 1203.41 390.042 1203.96 389.977L1213.57 388.834L1223.19 387.692C1223.74 387.627 1224.14 387.129 1224.07 386.581L1223.14 378.715Z" fill="#D7C7C7"/>
<path d="M1186.1 338.725L1191.3 382.497L1201.91 381.236L1207.22 380.606L1212.52 379.976L1223.14 378.715L1233.75 377.455L1233.5 377.484L1233.25 377.514L1243.93 376.246L1254.35 375.007L1265.09 373.732L1275.7 372.472L1270.5 328.7L1186.1 338.725Z" fill="#D7C7C7"/>
<path d="M1254.35 375.007C1258.55 374.509 1265.09 373.732 1265.09 373.732M1254.35 375.007C1250.28 375.491 1243.93 376.246 1243.93 376.246M1254.35 375.007L1265.09 373.732M1254.35 375.007L1243.93 376.246M1265.09 373.732L1275.7 372.472L1270.5 328.7L1186.1 338.725L1191.3 382.497L1201.91 381.236M1265.09 373.732L1266.03 381.598C1266.09 382.146 1265.7 382.644 1265.15 382.709L1245.97 384.986C1245.42 385.052 1244.93 384.66 1244.86 384.111L1243.93 376.246M1243.93 376.246L1233.25 377.514L1233.5 377.484L1233.75 377.455L1223.14 378.715M1201.91 381.236L1202.84 389.102C1202.91 389.65 1203.41 390.042 1203.96 389.977L1213.57 388.834L1223.19 387.692C1223.74 387.627 1224.14 387.129 1224.07 386.581L1223.14 378.715M1201.91 381.236L1207.22 380.606L1212.52 379.976L1223.14 378.715" stroke="white" stroke-width="0.5"/>
<path d="M364.072 185.222L374.823 184.067L385.263 182.946L384.417 175.071C384.358 174.521 383.865 174.124 383.316 174.183L364.114 176.246C363.565 176.304 363.167 176.797 363.226 177.347L364.072 185.222Z" fill="#D7C7C7"/>
<path d="M406.081 180.71L416.707 179.569L422.02 178.998L427.333 178.427L426.487 170.552C426.429 170.003 425.936 169.605 425.386 169.664L415.754 170.699L406.122 171.734C405.573 171.793 405.176 172.285 405.235 172.835L406.081 180.71Z" fill="#D7C7C7"/>
<path d="M442.667 221.113L437.96 177.286L427.333 178.427L422.02 178.998L416.707 179.569L406.081 180.71L395.454 181.851L395.703 181.825L395.951 181.798L385.263 182.946L374.823 184.067L364.072 185.222L353.446 186.363L358.153 230.191L442.667 221.113Z" fill="#D7C7C7"/>
<path d="M374.823 184.067C370.624 184.518 364.072 185.222 364.072 185.222M374.823 184.067C378.9 183.629 385.263 182.946 385.263 182.946M374.823 184.067L364.072 185.222M374.823 184.067L385.263 182.946M364.072 185.222L353.446 186.363L358.153 230.191L442.667 221.113L437.96 177.286L427.333 178.427M364.072 185.222L363.226 177.347C363.167 176.797 363.565 176.304 364.114 176.246L383.316 174.183C383.865 174.124 384.358 174.521 384.417 175.071L385.263 182.946M385.263 182.946L395.951 181.798L395.703 181.825L395.454 181.851L406.081 180.71M427.333 178.427L426.487 170.552C426.429 170.003 425.936 169.605 425.386 169.664L415.754 170.699L406.122 171.734C405.573 171.793 405.176 172.285 405.235 172.835L406.081 180.71M427.333 178.427L422.02 178.998L416.707 179.569L406.081 180.71" stroke="white" stroke-width="0.5"/>
<path d="M1446.94 411.262L1436.18 412.314L1425.73 413.336L1426.5 421.219C1426.55 421.768 1427.04 422.17 1427.59 422.117L1446.81 420.238C1447.36 420.184 1447.76 419.695 1447.71 419.145L1446.94 411.262Z" fill="#537DBD"/>
<path d="M1404.89 415.373L1394.25 416.413L1388.94 416.933L1383.62 417.453L1384.39 425.336C1384.44 425.885 1384.93 426.287 1385.48 426.234L1395.12 425.291L1404.76 424.348C1405.31 424.295 1405.72 423.806 1405.66 423.256L1404.89 415.373Z" fill="#537DBD"/>
<path d="M1368.69 374.622L1372.98 418.492L1383.62 417.453L1388.94 416.933L1394.25 416.413L1404.89 415.373L1415.53 414.333L1415.28 414.357L1415.03 414.381L1425.73 413.336L1436.18 412.314L1446.94 411.262L1457.58 410.222L1453.29 366.352L1368.69 374.622Z" fill="#537DBD"/>
<path d="M1436.18 412.314C1440.38 411.903 1446.94 411.262 1446.94 411.262M1436.18 412.314C1432.1 412.713 1425.73 413.336 1425.73 413.336M1436.18 412.314L1446.94 411.262M1436.18 412.314L1425.73 413.336M1446.94 411.262L1457.58 410.222L1453.29 366.352L1368.69 374.622L1372.98 418.492L1383.62 417.453M1446.94 411.262L1447.71 419.145C1447.76 419.695 1447.36 420.184 1446.81 420.238L1427.59 422.117C1427.04 422.17 1426.55 421.768 1426.5 421.219L1425.73 413.336M1425.73 413.336L1415.03 414.381L1415.28 414.357L1415.53 414.333L1404.89 415.373M1383.62 417.453L1384.39 425.336C1384.44 425.885 1384.93 426.287 1385.48 426.234L1395.12 425.291L1404.76 424.348C1405.31 424.295 1405.72 423.806 1405.66 423.256L1404.89 415.373M1383.62 417.453L1388.94 416.933L1394.25 416.413L1404.89 415.373" stroke="white" stroke-width="0.5"/>
<path d="M1406.38 495.942L1412.55 504.825L1418.53 513.451L1425.04 508.936C1425.5 508.621 1425.61 507.998 1425.29 507.544L1414.28 491.677C1413.97 491.224 1413.34 491.111 1412.89 491.426L1406.38 495.942Z" fill="#D7C7C7"/>
<path d="M1430.47 530.653L1436.56 539.433L1439.61 543.824L1442.66 548.214L1449.16 543.698C1449.62 543.383 1449.73 542.76 1449.42 542.306L1443.89 534.347L1438.37 526.389C1438.06 525.935 1437.43 525.822 1436.98 526.137L1430.47 530.653Z" fill="#D7C7C7"/>
<path d="M1412.54 582.125L1448.75 556.994L1442.66 548.214L1439.61 543.824L1436.56 539.433L1430.47 530.653L1424.38 521.872L1424.52 522.078L1424.66 522.283L1418.53 513.451L1412.55 504.825L1406.38 495.942L1400.29 487.161L1364.08 512.292L1412.54 582.125Z" fill="#D7C7C7"/>
<path d="M1412.55 504.825C1410.14 501.356 1406.38 495.942 1406.38 495.942M1412.55 504.825C1414.89 508.194 1418.53 513.451 1418.53 513.451M1412.55 504.825L1406.38 495.942M1412.55 504.825L1418.53 513.451M1406.38 495.942L1400.29 487.161L1364.08 512.292L1412.54 582.125L1448.75 556.994L1442.66 548.214M1406.38 495.942L1412.89 491.426C1413.34 491.111 1413.97 491.224 1414.28 491.677L1425.29 507.544C1425.61 507.998 1425.5 508.621 1425.04 508.936L1418.53 513.451M1418.53 513.451L1424.66 522.283L1424.52 522.078L1424.38 521.872L1430.47 530.653M1442.66 548.214L1449.16 543.698C1449.62 543.383 1449.73 542.76 1449.42 542.306L1443.89 534.347L1438.37 526.389C1438.06 525.935 1437.43 525.822 1436.98 526.137L1430.47 530.653M1442.66 548.214L1439.61 543.824L1436.56 539.433L1430.47 530.653" stroke="white" stroke-width="0.5"/>
<path d="M1285.44 618.223L1294.41 612.193L1303.13 606.338L1298.71 599.763C1298.4 599.305 1297.78 599.183 1297.32 599.491L1281.29 610.26C1280.83 610.568 1280.71 611.189 1281.02 611.648L1285.44 618.223Z" fill="#BD5353"/>
<path d="M1320.51 594.663L1329.38 588.704L1333.82 585.724L1338.25 582.744L1333.83 576.169C1333.53 575.711 1332.91 575.589 1332.45 575.897L1324.41 581.299L1316.36 586.701C1315.91 587.008 1315.78 587.63 1316.09 588.088L1320.51 594.663Z" fill="#BD5353"/>
<path d="M1371.7 613.375L1347.12 576.785L1338.25 582.744L1333.82 585.724L1329.38 588.704L1320.51 594.663L1311.64 600.623L1311.84 600.483L1312.05 600.344L1303.13 606.338L1294.41 612.193L1285.44 618.223L1276.57 624.182L1301.14 660.772L1371.7 613.375Z" fill="#BD5353"/>
<path d="M1294.41 612.193C1290.91 614.548 1285.44 618.223 1285.44 618.223M1294.41 612.193C1297.82 609.907 1303.13 606.338 1303.13 606.338M1294.41 612.193L1285.44 618.223M1294.41 612.193L1303.13 606.338M1285.44 618.223L1276.57 624.182L1301.14 660.772L1371.7 613.375L1347.12 576.785L1338.25 582.744M1285.44 618.223L1281.02 611.648C1280.71 611.189 1280.83 610.568 1281.29 610.26L1297.32 599.491C1297.78 599.183 1298.4 599.305 1298.71 599.763L1303.13 606.338M1303.13 606.338L1312.05 600.344L1311.84 600.483L1311.64 600.623L1320.51 594.663M1338.25 582.744L1333.83 576.169C1333.53 575.711 1332.91 575.589 1332.45 575.897L1324.41 581.299L1316.36 586.701C1315.91 587.008 1315.78 587.63 1316.09 588.088L1320.51 594.663M1338.25 582.744L1333.82 585.724L1329.38 588.704L1320.51 594.663" stroke="white" stroke-width="0.5"/>
<path d="M1199.96 514.065L1210.42 516.834L1220.57 519.524L1222.59 511.867C1222.74 511.333 1222.42 510.786 1221.88 510.645L1203.22 505.698C1202.68 505.556 1202.13 505.874 1201.99 506.408L1199.96 514.065Z" fill="#537DBD"/>
<path d="M1240.8 524.887L1251.14 527.625L1256.3 528.993L1261.47 530.362L1263.5 522.706C1263.64 522.172 1263.32 521.624 1262.79 521.483L1253.42 519.001L1244.06 516.52C1243.52 516.378 1242.98 516.697 1242.83 517.23L1240.8 524.887Z" fill="#537DBD"/>
<path d="M1260.51 575.708L1271.8 533.1L1261.47 530.362L1256.3 528.993L1251.14 527.625L1240.8 524.887L1230.47 522.149L1230.72 522.213L1230.96 522.277L1220.57 519.524L1210.42 516.834L1199.96 514.065L1189.63 511.327L1178.34 553.936L1260.51 575.708Z" fill="#537DBD"/>
<path d="M1210.42 516.834C1206.33 515.753 1199.96 514.065 1199.96 514.065M1210.42 516.834C1214.38 517.885 1220.57 519.524 1220.57 519.524M1210.42 516.834L1199.96 514.065M1210.42 516.834L1220.57 519.524M1199.96 514.065L1189.63 511.327L1178.34 553.936L1260.51 575.708L1271.8 533.1L1261.47 530.362M1199.96 514.065L1201.99 506.408C1202.13 505.874 1202.68 505.556 1203.22 505.698L1221.88 510.645C1222.42 510.786 1222.74 511.333 1222.59 511.867L1220.57 519.524M1220.57 519.524L1230.96 522.277L1230.72 522.213L1230.47 522.149L1240.8 524.887M1261.47 530.362L1263.5 522.706C1263.64 522.172 1263.32 521.624 1262.79 521.483L1253.42 519.001L1244.06 516.52C1243.52 516.378 1242.98 516.697 1242.83 517.23L1240.8 524.887M1261.47 530.362L1256.3 528.993L1251.14 527.625L1240.8 524.887" stroke="white" stroke-width="0.5"/>
<path d="M1123.27 630.007L1121.89 619.283L1120.54 608.869L1112.69 609.882C1112.14 609.953 1111.75 610.454 1111.83 611.002L1114.3 630.156C1114.37 630.704 1114.87 631.091 1115.41 631.02L1123.27 630.007Z" fill="#D8D23E"/>
<path d="M1117.87 588.104L1116.5 577.504L1115.82 572.204L1115.13 566.904L1107.28 567.917C1106.73 567.988 1106.34 568.489 1106.41 569.037L1107.65 578.645L1108.89 588.253C1108.96 588.801 1109.46 589.187 1110.01 589.117L1117.87 588.104Z" fill="#D8D23E"/>
<path d="M1157.48 550.667L1113.77 556.305L1115.13 566.904L1115.82 572.204L1116.5 577.504L1117.87 588.104L1119.23 598.704L1119.2 598.456L1119.17 598.208L1120.54 608.869L1121.89 619.283L1123.27 630.007L1124.64 640.607L1168.35 634.969L1157.48 550.667Z" fill="#D8D23E"/>
<path d="M1121.89 619.283C1122.43 623.471 1123.27 630.007 1123.27 630.007M1121.89 619.283C1121.36 615.216 1120.54 608.869 1120.54 608.869M1121.89 619.283L1123.27 630.007M1121.89 619.283L1120.54 608.869M1123.27 630.007L1124.64 640.607L1168.35 634.969L1157.48 550.667L1113.77 556.305L1115.13 566.904M1123.27 630.007L1115.41 631.02C1114.87 631.091 1114.37 630.704 1114.3 630.156L1111.83 611.002C1111.75 610.454 1112.14 609.953 1112.69 609.882L1120.54 608.869M1120.54 608.869L1119.17 598.208L1119.2 598.456L1119.23 598.704L1117.87 588.104M1115.13 566.904L1107.28 567.917C1106.73 567.988 1106.34 568.489 1106.41 569.037L1107.65 578.645L1108.89 588.253C1108.96 588.801 1109.46 589.187 1110.01 589.117L1117.87 588.104M1115.13 566.904L1115.82 572.204L1116.5 577.504L1117.87 588.104" stroke="white" stroke-width="0.5"/>
<path d="M1081.12 601.221L1071.66 606.461L1062.47 611.549L1066.31 618.477C1066.58 618.961 1067.19 619.135 1067.67 618.868L1084.56 609.509C1085.05 609.242 1085.22 608.633 1084.95 608.15L1081.12 601.221Z" fill="#537DBD"/>
<path d="M1044.16 621.694L1034.81 626.873L1030.13 629.462L1025.46 632.052L1029.3 638.981C1029.57 639.464 1030.17 639.638 1030.66 639.371L1039.13 634.677L1047.61 629.982C1048.09 629.715 1048.26 629.106 1048 628.623L1044.16 621.694Z" fill="#537DBD"/>
<path d="M994.752 598.672L1016.11 637.231L1025.46 632.052L1030.13 629.462L1034.81 626.873L1044.16 621.694L1053.51 616.515L1053.29 616.637L1053.07 616.758L1062.47 611.549L1071.66 606.461L1081.12 601.221L1090.47 596.043L1069.11 557.484L994.752 598.672Z" fill="#537DBD"/>
<path d="M1071.66 606.461C1075.35 604.415 1081.12 601.221 1081.12 601.221M1071.66 606.461C1068.07 608.448 1062.47 611.549 1062.47 611.549M1071.66 606.461L1081.12 601.221M1071.66 606.461L1062.47 611.549M1081.12 601.221L1090.47 596.043L1069.11 557.484L994.752 598.672L1016.11 637.231L1025.46 632.052M1081.12 601.221L1084.95 608.15C1085.22 608.633 1085.05 609.242 1084.56 609.509L1067.67 618.868C1067.19 619.135 1066.58 618.961 1066.31 618.477L1062.47 611.549M1062.47 611.549L1053.07 616.758L1053.29 616.637L1053.51 616.515L1044.16 621.694M1025.46 632.052L1029.3 638.981C1029.57 639.464 1030.17 639.638 1030.66 639.371L1039.13 634.677L1047.61 629.982C1048.09 629.715 1048.26 629.106 1048 628.623L1044.16 621.694M1025.46 632.052L1030.13 629.462L1034.81 626.873L1044.16 621.694" stroke="white" stroke-width="0.5"/>
<path d="M914.177 549.596L923.884 544.833L933.31 540.208L929.821 533.097C929.578 532.601 928.979 532.397 928.483 532.64L911.145 541.147C910.649 541.391 910.445 541.99 910.688 542.486L914.177 549.596Z" fill="#62BD53"/>
<path d="M952.107 530.985L961.702 526.277L966.499 523.923L971.296 521.569L967.807 514.458C967.564 513.962 966.965 513.757 966.469 514L957.772 518.268L949.075 522.535C948.579 522.779 948.374 523.378 948.618 523.874L952.107 530.985Z" fill="#62BD53"/>
<path d="M1000.31 556.432L980.891 516.86L971.296 521.569L966.499 523.923L961.702 526.277L952.107 530.985L942.512 535.693L942.737 535.582L942.961 535.472L933.31 540.208L923.884 544.833L914.177 549.596L904.583 554.304L924 593.876L1000.31 556.432Z" fill="#62BD53"/>
<path d="M923.884 544.833C920.093 546.693 914.177 549.596 914.177 549.596M923.884 544.833C927.565 543.027 933.31 540.208 933.31 540.208M923.884 544.833L914.177 549.596M923.884 544.833L933.31 540.208M914.177 549.596L904.583 554.304L924 593.876L1000.31 556.432L980.891 516.86L971.296 521.569M914.177 549.596L910.688 542.486C910.445 541.99 910.649 541.391 911.145 541.147L928.483 532.64C928.979 532.397 929.578 532.601 929.821 533.097L933.31 540.208M933.31 540.208L942.961 535.472L942.737 535.582L942.512 535.693L952.107 530.985M971.296 521.569L967.807 514.458C967.564 513.962 966.965 513.757 966.469 514L957.772 518.268L949.075 522.535C948.579 522.779 948.374 523.378 948.618 523.874L952.107 530.985M971.296 521.569L966.499 523.923L961.702 526.277L952.107 530.985" stroke="white" stroke-width="0.5"/>
<path d="M831.337 563.894L841.826 566.52L852.012 569.069L853.935 561.385C854.069 560.849 853.743 560.306 853.208 560.172L834.473 555.483C833.937 555.349 833.394 555.675 833.26 556.21L831.337 563.894Z" fill="#D7C7C7"/>
<path d="M872.323 574.153L882.69 576.748L887.874 578.045L893.058 579.343L894.981 571.659C895.115 571.123 894.79 570.58 894.254 570.446L884.856 568.094L875.459 565.742C874.923 565.608 874.38 565.933 874.246 566.469L872.323 574.153Z" fill="#D7C7C7"/>
<path d="M892.723 624.698L903.426 581.938L893.058 579.343L887.874 578.045L882.69 576.748L872.323 574.153L861.955 571.558L862.197 571.618L862.44 571.679L852.012 569.069L841.826 566.52L831.337 563.894L820.969 561.299L810.267 604.059L892.723 624.698Z" fill="#D7C7C7"/>
<path d="M841.826 566.52C837.73 565.494 831.337 563.894 831.337 563.894M841.826 566.52C845.804 567.515 852.012 569.069 852.012 569.069M841.826 566.52L831.337 563.894M841.826 566.52L852.012 569.069M831.337 563.894L820.969 561.299L810.267 604.059L892.723 624.698L903.426 581.938L893.058 579.343M831.337 563.894L833.26 556.21C833.394 555.675 833.937 555.349 834.473 555.483L853.208 560.172C853.743 560.306 854.069 560.849 853.935 561.385L852.012 569.069M852.012 569.069L862.44 571.679L862.197 571.618L861.955 571.558L872.323 574.153M893.058 579.343L894.981 571.659C895.115 571.123 894.79 570.58 894.254 570.446L884.856 568.094L875.459 565.742C874.923 565.608 874.38 565.933 874.246 566.469L872.323 574.153M893.058 579.343L887.874 578.045L882.69 576.748L872.323 574.153" stroke="white" stroke-width="0.5"/>
<path d="M732.177 643.635L742.045 639.214L751.627 634.922L748.389 627.693C748.163 627.189 747.572 626.963 747.068 627.189L729.443 635.085C728.939 635.31 728.713 635.902 728.939 636.406L732.177 643.635Z" fill="#BD5353"/>
<path d="M770.735 626.362L780.489 621.992L785.366 619.808L790.242 617.623L787.004 610.394C786.778 609.89 786.187 609.665 785.683 609.891L776.842 613.851L768.001 617.812C767.497 618.037 767.271 618.629 767.497 619.133L770.735 626.362Z" fill="#BD5353"/>
<path d="M818.017 653.481L799.996 613.254L790.242 617.623L785.366 619.808L780.489 621.992L770.735 626.362L760.982 630.731L761.21 630.629L761.438 630.527L751.627 634.922L742.045 639.214L732.177 643.635L722.424 648.004L740.445 688.231L818.017 653.481Z" fill="#BD5353"/>
<path d="M742.045 639.214C738.192 640.941 732.177 643.635 732.177 643.635M742.045 639.214C745.787 637.538 751.627 634.922 751.627 634.922M742.045 639.214L732.177 643.635M742.045 639.214L751.627 634.922M732.177 643.635L722.424 648.004L740.445 688.231L818.017 653.481L799.996 613.254L790.242 617.623M732.177 643.635L728.939 636.406C728.713 635.902 728.939 635.31 729.443 635.085L747.068 627.189C747.572 626.963 748.163 627.189 748.389 627.693L751.627 634.922M751.627 634.922L761.438 630.527L761.21 630.629L760.982 630.731L770.735 626.362M790.242 617.623L787.004 610.394C786.778 609.89 786.187 609.665 785.683 609.891L776.842 613.851L768.001 617.812C767.497 618.037 767.271 618.629 767.497 619.133L770.735 626.362M790.242 617.623L785.366 619.808L780.489 621.992L770.735 626.362" stroke="white" stroke-width="0.5"/>
<path d="M686.379 510.546L687.365 521.314L688.322 531.77L696.21 531.048C696.76 530.998 697.165 530.511 697.114 529.961L695.354 510.729C695.304 510.179 694.817 509.774 694.267 509.824L686.379 510.546Z" fill="#D8D23E"/>
<path d="M690.23 552.62L691.204 563.263L691.691 568.585L692.178 573.906L700.066 573.184C700.616 573.134 701.021 572.647 700.971 572.097L700.088 562.45L699.205 552.803C699.154 552.253 698.668 551.848 698.118 551.898L690.23 552.62Z" fill="#D8D23E"/>
<path d="M649.256 588.566L693.152 584.549L692.178 573.906L691.691 568.585L691.204 563.263L690.23 552.62L689.256 541.977L689.279 542.226L689.302 542.475L688.322 531.77L687.365 521.314L686.379 510.546L685.405 499.903L641.51 503.92L649.256 588.566Z" fill="#D8D23E"/>
<path d="M687.365 521.314C686.98 517.109 686.379 510.546 686.379 510.546M687.365 521.314C687.739 525.397 688.322 531.77 688.322 531.77M687.365 521.314L686.379 510.546M687.365 521.314L688.322 531.77M686.379 510.546L685.405 499.903L641.51 503.92L649.256 588.566L693.152 584.549L692.178 573.906M686.379 510.546L694.267 509.824C694.817 509.774 695.304 510.179 695.354 510.729L697.114 529.961C697.165 530.511 696.76 530.998 696.21 531.048L688.322 531.77M688.322 531.77L689.302 542.475L689.279 542.226L689.256 541.977L690.23 552.62M692.178 573.906L700.066 573.184C700.616 573.134 701.021 572.647 700.971 572.097L700.088 562.45L699.205 552.803C699.154 552.253 698.668 551.848 698.118 551.898L690.23 552.62M692.178 573.906L691.691 568.585L691.204 563.263L690.23 552.62" stroke="white" stroke-width="0.5"/>
<path d="M549.886 569.37L554.754 559.715L559.482 550.34L552.41 546.774C551.917 546.525 551.315 546.723 551.067 547.216L542.371 564.46C542.122 564.953 542.32 565.555 542.814 565.803L549.886 569.37Z" fill="#BD5353"/>
<path d="M568.91 531.645L573.722 522.102L576.128 517.331L578.534 512.559L571.462 508.993C570.969 508.744 570.367 508.943 570.119 509.436L565.757 518.086L561.395 526.735C561.146 527.229 561.344 527.83 561.837 528.079L568.91 531.645Z" fill="#BD5353"/>
<path d="M622.705 522.864L583.347 503.017L578.534 512.559L576.128 517.331L573.722 522.102L568.91 531.645L564.098 541.188L564.21 540.965L564.323 540.741L559.482 550.34L554.754 559.715L549.886 569.37L545.074 578.913L584.432 598.76L622.705 522.864Z" fill="#BD5353"/>
<path d="M554.754 559.715C552.853 563.486 549.886 569.37 549.886 569.37M554.754 559.715C556.601 556.054 559.482 550.34 559.482 550.34M554.754 559.715L549.886 569.37M554.754 559.715L559.482 550.34M549.886 569.37L545.074 578.913L584.432 598.76L622.705 522.864L583.347 503.017L578.534 512.559M549.886 569.37L542.814 565.803C542.32 565.555 542.122 564.953 542.371 564.46L551.067 547.216C551.315 546.723 551.917 546.525 552.41 546.774L559.482 550.34M559.482 550.34L564.323 540.741L564.21 540.965L564.098 541.188L568.91 531.645M578.534 512.559L571.462 508.993C570.969 508.744 570.367 508.943 570.119 509.436L565.757 518.086L561.395 526.735C561.146 527.229 561.344 527.83 561.837 528.079L568.91 531.645M578.534 512.559L576.128 517.331L573.722 522.102L568.91 531.645" stroke="white" stroke-width="0.5"/>
<path d="M526.614 608.008L516.861 612.675L507.389 617.207L510.808 624.352C511.046 624.85 511.644 625.06 512.142 624.822L529.563 616.486C530.061 616.248 530.272 615.651 530.033 615.153L526.614 608.008Z" fill="#D8D23E"/>
<path d="M488.503 626.244L478.862 630.857L474.041 633.163L469.221 635.47L472.64 642.615C472.878 643.113 473.475 643.323 473.974 643.085L482.712 638.904L491.451 634.722C491.949 634.484 492.16 633.887 491.921 633.389L488.503 626.244Z" fill="#D8D23E"/>
<path d="M440.555 600.321L459.58 640.083L469.221 635.47L474.041 633.163L478.862 630.857L488.503 626.244L498.143 621.631L497.918 621.739L497.692 621.847L507.389 617.207L516.861 612.675L526.614 608.008L536.255 603.395L517.23 563.633L440.555 600.321Z" fill="#D8D23E"/>
<path d="M516.861 612.675C520.67 610.852 526.614 608.008 526.614 608.008M516.861 612.675C513.162 614.444 507.389 617.207 507.389 617.207M516.861 612.675L526.614 608.008M516.861 612.675L507.389 617.207M526.614 608.008L536.255 603.395L517.23 563.633L440.555 600.321L459.58 640.083L469.221 635.47M526.614 608.008L530.033 615.153C530.272 615.651 530.061 616.248 529.563 616.486L512.142 624.822C511.644 625.06 511.046 624.85 510.808 624.352L507.389 617.207M507.389 617.207L497.692 621.847L497.918 621.739L498.143 621.631L488.503 626.244M469.221 635.47L472.64 642.615C472.878 643.113 473.475 643.323 473.974 643.085L482.712 638.904L491.451 634.722C491.949 634.484 492.16 633.887 491.921 633.389L488.503 626.244M469.221 635.47L474.041 633.163L478.862 630.857L488.503 626.244" stroke="white" stroke-width="0.5"/>
<path d="M413.723 588.765L404.558 583.028L395.658 577.457L391.455 584.171C391.162 584.639 391.304 585.256 391.772 585.549L408.143 595.796C408.611 596.089 409.228 595.947 409.521 595.479L413.723 588.765Z" fill="#D7C7C7"/>
<path d="M377.91 566.348L368.851 560.678L364.322 557.843L359.792 555.007L355.59 561.721C355.297 562.189 355.439 562.806 355.907 563.099L364.118 568.239L372.33 573.379C372.798 573.672 373.415 573.53 373.708 573.062L377.91 566.348Z" fill="#D7C7C7"/>
<path d="M374.12 511.973L350.733 549.337L359.792 555.007L364.322 557.843L368.851 560.678L377.91 566.348L386.97 572.019L386.758 571.886L386.546 571.753L395.658 577.457L404.558 583.028L413.723 588.765L422.782 594.435L446.17 557.072L374.12 511.973Z" fill="#D7C7C7"/>
<path d="M404.558 583.028C408.137 585.268 413.723 588.765 413.723 588.765M404.558 583.028C401.082 580.852 395.658 577.457 395.658 577.457M404.558 583.028L413.723 588.765M404.558 583.028L395.658 577.457M413.723 588.765L422.782 594.435L446.17 557.072L374.12 511.973L350.733 549.337L359.792 555.007M413.723 588.765L409.521 595.479C409.228 595.947 408.611 596.089 408.143 595.796L391.772 585.549C391.304 585.256 391.162 584.639 391.455 584.171L395.658 577.457M395.658 577.457L386.546 571.753L386.758 571.886L386.97 572.019L377.91 566.348M359.792 555.007L355.59 561.721C355.297 562.189 355.439 562.806 355.907 563.099L364.118 568.239L372.33 573.379C372.798 573.672 373.415 573.53 373.708 573.062L377.91 566.348M359.792 555.007L364.322 557.843L368.851 560.678L377.91 566.348" stroke="white" stroke-width="0.5"/>
<g filter="url(#filter0_b_88_98)">
<rect x="351" y="269" width="1107" height="255" fill="white" fill-opacity="0.01"/>
</g>
<g filter="url(#filter1_i_88_98)">
<path d="M401.992 335.52H434.76C439.709 335.52 444.275 336.224 448.456 337.632C452.637 338.997 455.987 341.216 458.504 344.288C461.064 347.317 462.344 351.349 462.344 356.384C462.344 359.584 461.747 362.443 460.552 364.96C459.4 367.435 457.779 369.483 455.688 371.104C453.64 372.725 451.272 373.877 448.584 374.56C451.059 374.901 453.32 375.584 455.368 376.608C457.416 377.589 459.187 378.933 460.68 380.64C462.216 382.347 463.389 384.459 464.2 386.976C465.053 389.493 465.48 392.437 465.48 395.808C465.48 400.629 464.328 404.853 462.024 408.48C459.763 412.107 456.52 414.944 452.296 416.992C448.115 418.997 443.101 420 437.256 420H401.992V335.52ZM426.824 400.416H430.28C432.115 400.416 433.693 400.224 435.016 399.84C436.381 399.413 437.427 398.688 438.152 397.664C438.92 396.597 439.304 395.125 439.304 393.248C439.304 390.432 438.493 388.597 436.872 387.744C435.251 386.848 433.053 386.4 430.28 386.4H426.824V400.416ZM426.824 367.264H430.152C431.731 367.264 433.075 367.093 434.184 366.752C435.336 366.368 436.211 365.707 436.808 364.768C437.448 363.829 437.768 362.549 437.768 360.928C437.768 358.453 437.085 356.875 435.72 356.192C434.397 355.467 432.541 355.104 430.152 355.104H426.824V367.264ZM509.043 335.52H533.299L568.115 420H541.683L536.307 405.344H506.163L500.723 420H474.227L509.043 335.52ZM514.483 383.84H527.987L521.331 365.216H521.139L514.483 383.84ZM625.726 335.52H650.494V387.04C650.494 393.995 649.15 400.053 646.462 405.216C643.774 410.379 639.806 414.389 634.558 417.248C629.353 420.107 622.931 421.536 615.294 421.536C607.657 421.536 601.193 420.107 595.902 417.248C590.654 414.389 586.686 410.379 583.998 405.216C581.31 400.053 579.966 393.995 579.966 387.04V335.52H604.734V385.696C604.734 388.811 605.118 391.371 605.886 393.376C606.654 395.339 607.806 396.789 609.342 397.728C610.921 398.667 612.905 399.136 615.294 399.136C617.641 399.136 619.582 398.667 621.118 397.728C622.654 396.789 623.806 395.339 624.574 393.376C625.342 391.371 625.726 388.811 625.726 385.696V335.52ZM664.185 401.568V380.256H721.849V401.568H664.185ZM780.492 396.96C783.479 396.96 786.359 396.491 789.132 395.552C791.948 394.613 794.124 393.675 795.66 392.736L806.22 413.728C804.172 415.435 800.695 417.163 795.788 418.912C790.881 420.661 785.1 421.536 778.444 421.536C772.215 421.536 766.327 420.469 760.78 418.336C755.233 416.16 750.305 413.109 745.996 409.184C741.729 405.259 738.38 400.651 735.948 395.36C733.516 390.027 732.3 384.203 732.3 377.888C732.3 371.573 733.516 365.749 735.948 360.416C738.38 355.04 741.729 350.389 745.996 346.464C750.263 342.496 755.169 339.424 760.716 337.248C766.305 335.072 772.215 333.984 778.444 333.984C785.1 333.984 790.881 334.859 795.788 336.608C800.695 338.357 804.172 340.085 806.22 341.792L795.66 362.784C794.124 361.845 791.948 360.907 789.132 359.968C786.359 359.029 783.479 358.56 780.492 358.56C776.439 358.56 773.047 359.136 770.316 360.288C767.585 361.44 765.388 362.976 763.724 364.896C762.103 366.773 760.929 368.843 760.204 371.104C759.521 373.323 759.18 375.52 759.18 377.696C759.18 379.915 759.521 382.155 760.204 384.416C760.929 386.677 762.103 388.768 763.724 390.688C765.388 392.565 767.585 394.08 770.316 395.232C773.047 396.384 776.439 396.96 780.492 396.96ZM869.301 388.384H847.989V420H823.221V335.52H847.989V366.944H869.301V335.52H894.005V420H869.301V388.384ZM941.668 335.52H965.924L1000.74 420H974.308L968.932 405.344H938.788L933.348 420H906.852L941.668 335.52ZM947.108 383.84H960.612L953.956 365.216H953.764L947.108 383.84ZM1046.19 333.984C1051.65 333.984 1056.49 334.581 1060.72 335.776C1064.99 336.928 1068.42 338.165 1071.02 339.488C1073.67 340.811 1075.29 341.707 1075.89 342.176L1064.17 362.016C1063.49 361.504 1062.3 360.8 1060.59 359.904C1058.93 358.965 1057.05 358.133 1054.96 357.408C1052.87 356.683 1050.86 356.32 1048.94 356.32C1046.68 356.32 1044.8 356.64 1043.31 357.28C1041.82 357.877 1041.07 358.923 1041.07 360.416C1041.07 361.44 1041.48 362.379 1042.29 363.232C1043.1 364.085 1044.46 364.96 1046.38 365.856C1048.35 366.752 1051.01 367.776 1054.38 368.928C1057.67 369.995 1060.68 371.317 1063.41 372.896C1066.14 374.475 1068.48 376.352 1070.45 378.528C1072.45 380.704 1074.01 383.2 1075.12 386.016C1076.23 388.832 1076.78 392.011 1076.78 395.552C1076.78 400.245 1075.8 404.256 1073.84 407.584C1071.92 410.869 1069.34 413.536 1066.09 415.584C1062.85 417.632 1059.23 419.125 1055.21 420.064C1051.25 421.045 1047.21 421.536 1043.12 421.536C1036.85 421.536 1031.26 420.853 1026.35 419.488C1021.49 418.123 1017.54 416.651 1014.51 415.072C1011.52 413.451 1009.69 412.299 1009.01 411.616L1021.1 390.944C1021.57 391.328 1022.57 391.947 1024.11 392.8C1025.69 393.653 1027.57 394.549 1029.74 395.488C1031.96 396.427 1034.24 397.237 1036.59 397.92C1038.94 398.56 1041.11 398.88 1043.12 398.88C1045.81 398.88 1047.79 398.496 1049.07 397.728C1050.35 396.96 1050.99 395.851 1050.99 394.4C1050.99 393.376 1050.59 392.416 1049.77 391.52C1049.01 390.624 1047.6 389.685 1045.55 388.704C1043.55 387.68 1040.69 386.507 1036.97 385.184C1033.39 383.861 1029.98 382.133 1026.73 380C1023.49 377.867 1020.85 375.093 1018.8 371.68C1016.75 368.267 1015.73 364 1015.73 358.88C1015.73 353.675 1017.18 349.216 1020.08 345.504C1022.98 341.792 1026.76 338.955 1031.41 336.992C1036.06 334.987 1040.99 333.984 1046.19 333.984ZM1140.34 396.96C1143.33 396.96 1146.21 396.491 1148.98 395.552C1151.8 394.613 1153.97 393.675 1155.51 392.736L1166.07 413.728C1164.02 415.435 1160.54 417.163 1155.64 418.912C1150.73 420.661 1144.95 421.536 1138.29 421.536C1132.06 421.536 1126.18 420.469 1120.63 418.336C1115.08 416.16 1110.16 413.109 1105.85 409.184C1101.58 405.259 1098.23 400.651 1095.8 395.36C1093.37 390.027 1092.15 384.203 1092.15 377.888C1092.15 371.573 1093.37 365.749 1095.8 360.416C1098.23 355.04 1101.58 350.389 1105.85 346.464C1110.11 342.496 1115.02 339.424 1120.57 337.248C1126.16 335.072 1132.06 333.984 1138.29 333.984C1144.95 333.984 1150.73 334.859 1155.64 336.608C1160.54 338.357 1164.02 340.085 1166.07 341.792L1155.51 362.784C1153.97 361.845 1151.8 360.907 1148.98 359.968C1146.21 359.029 1143.33 358.56 1140.34 358.56C1136.29 358.56 1132.9 359.136 1130.17 360.288C1127.44 361.44 1125.24 362.976 1123.57 364.896C1121.95 366.773 1120.78 368.843 1120.05 371.104C1119.37 373.323 1119.03 375.52 1119.03 377.696C1119.03 379.915 1119.37 382.155 1120.05 384.416C1120.78 386.677 1121.95 388.768 1123.57 390.688C1125.24 392.565 1127.44 394.08 1130.17 395.232C1132.9 396.384 1136.29 396.96 1140.34 396.96ZM1229.15 388.384H1207.84V420H1183.07V335.52H1207.84V366.944H1229.15V335.52H1253.85V420H1229.15V388.384ZM1286.37 357.024H1268.13V335.52H1329.38V357.024H1311.14V420H1286.37V357.024ZM1344.87 335.52H1401.58V357.024H1369.64V367.264H1401.58V388.064H1369.64V398.496H1401.58V420H1344.87V335.52Z" fill="black"/>
</g>
<path d="M558.365 459.802H562.472V471.579L573.557 459.802H578.703L569.004 470.392L578.852 484H574.002L565.986 473.41L562.472 477.221V484H558.365V459.802ZM599.243 475.192L605.577 484H600.381L594.591 475.835H589.247V484H585.14V459.802H594.146C597.808 459.802 600.431 460.429 602.014 461.682C603.631 462.903 604.439 464.899 604.439 467.67C604.439 471.662 602.707 474.169 599.243 475.192ZM594.295 472.173C596.571 472.173 598.138 471.827 598.996 471.134C599.853 470.441 600.282 469.27 600.282 467.621C600.282 466.037 599.853 464.965 598.996 464.404C598.138 463.81 596.604 463.513 594.394 463.513H589.247V472.173H594.295ZM629.781 459.802V463.612H616.866V470.045H628.445V473.658H616.866V480.14H630.177V484H612.759V459.802H629.781ZM641.214 478.507L638.789 484H634.434L645.123 459.802H649.478L660.117 484H655.762L653.337 478.507H641.214ZM651.704 474.697L647.3 464.751L642.896 474.697H651.704ZM675.041 463.513V484H670.934V463.513H663.611V459.802H682.365V463.513H675.041ZM689.24 459.802H693.347V484H689.24V459.802ZM713.456 484H708.904L699.155 459.802H703.757L711.18 477.864L718.652 459.802H723.205L713.456 484ZM729.056 459.802H733.163V484H729.056V459.802ZM751.391 463.513V484H747.284V463.513H739.961V459.802H758.715V463.513H751.391ZM776.823 459.802L787.512 484H783.009L780.534 478.507H768.955L766.58 484H762.225L772.914 459.802H776.823ZM778.901 474.697L774.745 465.394L770.637 474.697H778.901ZM769.549 455.744C769.549 455.184 769.747 454.705 770.143 454.309C770.538 453.88 771.033 453.666 771.627 453.666C772.254 453.666 772.765 453.864 773.161 454.26C773.59 454.656 773.804 455.151 773.804 455.744C773.804 456.338 773.59 456.849 773.161 457.278C772.765 457.707 772.254 457.922 771.627 457.922C771.033 457.922 770.538 457.707 770.143 457.278C769.747 456.849 769.549 456.338 769.549 455.744ZM775.932 455.744C775.932 455.184 776.147 454.705 776.576 454.309C777.004 453.88 777.516 453.666 778.11 453.666C778.67 453.666 779.149 453.864 779.545 454.26C779.973 454.656 780.188 455.151 780.188 455.744C780.188 456.338 779.973 456.849 779.545 457.278C779.116 457.707 778.621 457.922 778.06 457.922C777.499 457.922 777.004 457.707 776.576 457.278C776.147 456.849 775.932 456.338 775.932 455.744ZM802.41 463.513V484H798.303V463.513H790.979V459.802H809.734V463.513H802.41ZM827.634 475.489V471.827H839.163V475.489H827.634ZM868.495 463.513V484H864.387V463.513H857.064V459.802H875.818V463.513H868.495ZM899.716 459.802V463.612H886.8V470.045H898.38V473.658H886.8V480.14H900.112V484H882.693V459.802H899.716ZM925.598 477.32L928.22 479.992C925.713 482.862 922.612 484.297 918.917 484.297C915.255 484.297 912.204 483.126 909.763 480.784C907.354 478.408 906.15 475.423 906.15 471.827C906.15 468.198 907.387 465.196 909.862 462.821C912.336 460.412 915.453 459.208 919.214 459.208C922.909 459.208 926.026 460.594 928.567 463.365L925.993 466.186C924.839 465.064 923.75 464.289 922.728 463.86C921.705 463.431 920.501 463.216 919.115 463.216C916.641 463.216 914.563 464.008 912.88 465.592C911.231 467.175 910.406 469.188 910.406 471.629C910.406 474.037 911.231 476.082 912.88 477.765C914.53 479.447 916.492 480.289 918.769 480.289C920.154 480.289 921.342 480.058 922.332 479.596C923.354 479.134 924.443 478.375 925.598 477.32ZM935.634 484V459.802H939.741V470.293H951.716V459.802H955.823V484H951.716V474.103H939.741V484H935.634ZM983.101 459.802H987.159V484H982.754L969.047 466.334V484H964.94V459.802H969.047L983.101 477.864V459.802ZM996.309 459.802H1000.42V484H996.309V459.802ZM1009.49 459.802H1013.6V471.579L1024.68 459.802H1029.83L1020.13 470.392L1029.98 484H1025.13L1017.11 473.41L1013.6 477.221V484H1009.49V459.802ZM1047.29 475.489V471.827H1058.82V475.489H1047.29ZM1093.1 475.192L1099.43 484H1094.24L1088.45 475.835H1083.1V484H1079V459.802H1088C1091.66 459.802 1094.29 460.429 1095.87 461.682C1097.49 462.903 1098.3 464.899 1098.3 467.67C1098.3 471.662 1096.56 474.169 1093.1 475.192ZM1088.15 472.173C1090.43 472.173 1091.99 471.827 1092.85 471.134C1093.71 470.441 1094.14 469.27 1094.14 467.621C1094.14 466.037 1093.71 464.965 1092.85 464.404C1091.99 463.81 1090.46 463.513 1088.25 463.513H1083.1V472.173H1088.15ZM1117.8 462.92C1115.39 462.92 1113.36 463.777 1111.71 465.493C1110.06 467.208 1109.24 469.287 1109.24 471.728C1109.24 474.169 1110.06 476.247 1111.71 477.963C1113.36 479.645 1115.39 480.487 1117.8 480.487C1120.21 480.487 1122.24 479.645 1123.89 477.963C1125.53 476.247 1126.36 474.169 1126.36 471.728C1126.36 469.287 1125.53 467.208 1123.89 465.493C1122.24 463.777 1120.21 462.92 1117.8 462.92ZM1117.8 484.247C1114.17 484.247 1111.13 483.06 1108.69 480.685C1106.25 478.276 1105.03 475.291 1105.03 471.728C1105.03 468.165 1106.25 465.196 1108.69 462.821C1111.13 460.412 1114.17 459.208 1117.8 459.208C1121.43 459.208 1124.46 460.412 1126.9 462.821C1129.34 465.196 1130.57 468.165 1130.57 471.728C1130.57 475.291 1129.33 478.26 1126.85 480.635C1124.38 483.043 1121.36 484.247 1117.8 484.247ZM1138.12 484V459.802H1147.53C1150.92 459.802 1153.23 460.528 1154.45 461.979C1155.54 463.2 1156.09 464.602 1156.09 466.186C1156.09 468.099 1155.49 469.518 1154.31 470.441C1153.91 470.738 1153.32 471.068 1152.52 471.431C1154.04 471.761 1155.23 472.437 1156.09 473.46C1156.98 474.482 1157.42 475.753 1157.42 477.27C1157.42 479.184 1156.73 480.784 1155.34 482.07C1153.99 483.357 1151.78 484 1148.71 484H1138.12ZM1142.23 469.847H1147.38C1150.35 469.847 1151.83 468.841 1151.83 466.829C1151.83 465.674 1151.47 464.849 1150.74 464.355C1150.05 463.827 1148.94 463.563 1147.43 463.563H1142.23V469.847ZM1142.23 480.239H1148.62C1150.2 480.239 1151.37 479.992 1152.13 479.497C1152.89 478.969 1153.27 478.078 1153.27 476.825C1153.27 474.68 1151.55 473.608 1148.12 473.608H1142.23V480.239ZM1176.13 462.92C1173.72 462.92 1171.69 463.777 1170.04 465.493C1168.39 467.208 1167.57 469.287 1167.57 471.728C1167.57 474.169 1168.39 476.247 1170.04 477.963C1171.69 479.645 1173.72 480.487 1176.13 480.487C1178.54 480.487 1180.57 479.645 1182.22 477.963C1183.87 476.247 1184.69 474.169 1184.69 471.728C1184.69 469.287 1183.87 467.208 1182.22 465.493C1180.57 463.777 1178.54 462.92 1176.13 462.92ZM1176.13 484.247C1172.5 484.247 1169.47 483.06 1167.02 480.685C1164.58 478.276 1163.36 475.291 1163.36 471.728C1163.36 468.165 1164.58 465.196 1167.02 462.821C1169.47 460.412 1172.5 459.208 1176.13 459.208C1179.76 459.208 1182.79 460.412 1185.23 462.821C1187.68 465.196 1188.9 468.165 1188.9 471.728C1188.9 475.291 1187.66 478.26 1185.19 480.635C1182.71 483.043 1179.69 484.247 1176.13 484.247ZM1205.61 463.513V484H1201.5V463.513H1194.18V459.802H1212.93V463.513H1205.61ZM1219.81 459.802H1223.92V484H1219.81V459.802ZM1232.99 459.802H1237.1V471.579L1248.18 459.802H1253.33L1243.63 470.392L1253.48 484H1248.63L1240.61 473.41L1237.1 477.221V484H1232.99V459.802Z" fill="black"/>
<defs>
<filter id="filter0_b_88_98" x="340.9" y="258.9" width="1127.2" height="275.2" filterUnits="userSpaceOnUse" color-interpolation-filters="sRGB">
<feFlood flood-opacity="0" result="BackgroundImageFix"/>
<feGaussianBlur in="BackgroundImageFix" stdDeviation="5.05"/>
<feComposite in2="SourceAlpha" operator="in" result="effect1_backgroundBlur_88_98"/>
<feBlend mode="normal" in="SourceGraphic" in2="effect1_backgroundBlur_88_98" result="shape"/>
</filter>
<filter id="filter1_i_88_98" x="401.992" y="333.984" width="999.583" height="91.552" filterUnits="userSpaceOnUse" color-interpolation-filters="sRGB">
<feFlood flood-opacity="0" result="BackgroundImageFix"/>
<feBlend mode="normal" in="SourceGraphic" in2="BackgroundImageFix" result="shape"/>
<feColorMatrix in="SourceAlpha" type="matrix" values="0 0 0 0 0 0 0 0 0 0 0 0 0 0 0 0 0 0 127 0" result="hardAlpha"/>
<feOffset dy="4"/>
<feGaussianBlur stdDeviation="2"/>
<feComposite in2="hardAlpha" operator="arithmetic" k2="-1" k3="1"/>
<feColorMatrix type="matrix" values="0 0 0 0 0 0 0 0 0 0 0 0 0 0 0 0 0 0 0.25 0"/>
<feBlend mode="normal" in2="shape" result="effect1_innerShadow_88_98"/>
</filter>
</defs>
</svg>
